# xmcd
#
# Track frame offsets:
#	150
#	18143
#	34284
#	46611
#	63846
#	77803
#	91491
#	107419
#	121642
#	133171
#	149508
#	162250
#	176240
#	189321
#	203760
#	223155
#	235635
#	251022
#	270290
#	284543
#	298196
#	309290
#	321822
#	337013
#
# Disc length: 4678 seconds
#
# Revision: 1
# Processed by: cddbd v1.5.2PL0 Copyright (c) Steve Scherf et al.
# Submitted via: EasyCDDAExtractor 2010.6.0.0
#
DISCID=59124418
DTITLE=Various Artist - Country Hits, Vol. 26
DYEAR=2010
DGENRE=Country
TTITLE0=Albert Lee - I'll Stop Loving You
TTITLE1=Bellamy Brothers - Crazy From The Heart
TTITLE2=Aaron Tippin - Girl On The Billboard
TTITLE3=Clint Black - We All Fall Down
TTITLE4=Laura Cantrell - All The Same To You
TTITLE5=Clint Black - Better Man
TTITLE6=Albert Lee - In My Dreams
TTITLE7=Aaron Tippin - How's The Radio Know
TTITLE8=Albert Lee - Real wild child
TTITLE9=Arly Karlsen - Four Strong Wind
TTITLE10=Aaron Tippin - I Was Born With A Broken Heart
TTITLE11=Laura Cantrell - The Vaguest Idea
TTITLE12=Bellamy Brothers - Hillbilly Hell
TTITLE13=Aaron Tippin - Mission From Hank
TTITLE14=Laura Cantrell - Little Bit Of You
TTITLE15=Aaron Tippin - There Ain't Nothin' Wrong With The Radio
TTITLE16=Arly Karlsen - One Less Honky Tonk
TTITLE17=Bellamy Brothers - Take Me Home
TTITLE18=Aaron Tippin - Long White Line
TTITLE19=Albert Lee - One Of These Days
TTITLE20=Dottie West - Everything's A Wreck Since You've Gone
TTITLE21=Arly Karlsen - Sea Of Heartbreak
TTITLE22=Bellamy Brothers - You'll Never Be Sorry
TTITLE23=Albert Lee - The Fool (With No Strings)
EXTD=
EXTT0=
EXTT1=
EXTT2=
EXTT3=
EXTT4=
EXTT5=
EXTT6=
EXTT7=
EXTT8=
EXTT9=
EXTT10=
EXTT11=
EXTT12=
EXTT13=
EXTT14=
EXTT15=
EXTT16=
EXTT17=
EXTT18=
EXTT19=
EXTT20=
EXTT21=
EXTT22=
EXTT23=
PLAYORDER=
